<svg viewBox="0 0 128 128" width="64" height="64" xmlns="http://www.w3.org/2000/svg" style="background: rgb(248, 250, 252); border-radius: 8px;" data-fg-d3bl43="0.8:0.125:/src/app/App.tsx:143:9:4604:1469:e:svg:etetetetx" data-fgid-d3bl43=":r4:" id="logo-light"><defs data-fg-d3bl44="0.8:0.125:/src/app/App.tsx:151:11:4836:371:e:defs:ete"><clipPath id="diamond-clip-lt" data-fg-d3bl45="0.8:0.125:/src/app/App.tsx:152:13:4855:114:e:clipPath:e"><polygon points="64,8 120,64 64,120 8,64" data-fg-d3bl46="0.8:0.125:/src/app/App.tsx:153:15:4901:44:e:polygon"/></clipPath><linearGradient id="gold-lt" x1="0%" y1="100%" x2="100%" y2="0%" data-fg-d3bl47="0.8:0.125:/src/app/App.tsx:155:13:4982:207:e:linearGradient:ete"><stop offset="0%" stop-color="#B45309" data-fg-d3bl48="0.8:0.125:/src/app/App.tsx:156:15:5062:40:e:stop"/><stop offset="100%" stop-color="#D97706" data-fg-d3bl49="0.8:0.125:/src/app/App.tsx:157:15:5117:42:e:stop"/></linearGradient></defs><polygon points="64,8 120,64 64,120 8,64" fill="none" stroke="url(#gold-lt)" stroke-width="2" data-fg-d3bl50="0.8:0.125:/src/app/App.tsx:160:11:5218:95:e:polygon"/><path d="M 12,90 L 30,78 L 48,86 L 64,68 L 82,74 L 100,52 L 116,40 L 200,0 L 200,200 L 12,200 Z" fill="#D97706" clip-path="url(#diamond-clip-lt)" fill-opacity="0.22" data-fg-d3bl51="0.8:0.125:/src/app/App.tsx:161:11:5324:224:e:path"/><polyline points="12,90 30,78 48,86 64,68 82,74 100,52 116,40" fill="none" stroke="url(#gold-lt)" stroke-width="2" stroke-linecap="round" stroke-linejoin="round" clip-path="url(#diamond-clip-lt)" data-fg-d3bl52="0.8:0.125:/src/app/App.tsx:167:11:5559:288:e:polyline"/><circle cx="12" cy="90" r="2.5" fill="#B45309" clip-path="url(#diamond-clip-lt)" data-fg-d3bl54="0.8:0.125:/src/app/App.tsx:177:13:5954:90:e:circle"/><circle cx="30" cy="78" r="2.5" fill="#B45309" clip-path="url(#diamond-clip-lt)" data-fg-d3bl54="0.8:0.125:/src/app/App.tsx:177:13:5954:90:e:circle"/><circle cx="48" cy="86" r="2.5" fill="#B45309" clip-path="url(#diamond-clip-lt)" data-fg-d3bl54="0.8:0.125:/src/app/App.tsx:177:13:5954:90:e:circle"/><circle cx="64" cy="68" r="2.5" fill="#B45309" clip-path="url(#diamond-clip-lt)" data-fg-d3bl54="0.8:0.125:/src/app/App.tsx:177:13:5954:90:e:circle"/><circle cx="82" cy="74" r="2.5" fill="#B45309" clip-path="url(#diamond-clip-lt)" data-fg-d3bl54="0.8:0.125:/src/app/App.tsx:177:13:5954:90:e:circle"/><circle cx="100" cy="52" r="2.5" fill="#B45309" clip-path="url(#diamond-clip-lt)" data-fg-d3bl54="0.8:0.125:/src/app/App.tsx:177:13:5954:90:e:circle"/><circle cx="116" cy="40" r="2.5" fill="#B45309" clip-path="url(#diamond-clip-lt)" data-fg-d3bl54="0.8:0.125:/src/app/App.tsx:177:13:5954:90:e:circle"/></svg>