<svg viewBox="0 0 128 128" width="64" height="64" xmlns="http://www.w3.org/2000/svg" data-fg-d3bl30="0.8:0.125:/src/app/App.tsx:105:9:3157:1407:e:svg:etetetetx" data-fgid-d3bl30=":r3:" id="logo-dark"><defs data-fg-d3bl31="0.8:0.125:/src/app/App.tsx:112:11:3327:371:e:defs:ete"><clipPath id="diamond-clip-sm" data-fg-d3bl32="0.8:0.125:/src/app/App.tsx:113:13:3346:114:e:clipPath:e"><polygon points="64,8 120,64 64,120 8,64" data-fg-d3bl33="0.8:0.125:/src/app/App.tsx:114:15:3392:44:e:polygon"/></clipPath><linearGradient id="gold-sm" x1="0%" y1="100%" x2="100%" y2="0%" data-fg-d3bl34="0.8:0.125:/src/app/App.tsx:116:13:3473:207:e:linearGradient:ete"><stop offset="0%" stop-color="#D97706" data-fg-d3bl35="0.8:0.125:/src/app/App.tsx:117:15:3553:40:e:stop"/><stop offset="100%" stop-color="#FCD34D" data-fg-d3bl36="0.8:0.125:/src/app/App.tsx:118:15:3608:42:e:stop"/></linearGradient></defs><polygon points="64,8 120,64 64,120 8,64" fill="none" stroke="url(#gold-sm)" stroke-width="2" data-fg-d3bl37="0.8:0.125:/src/app/App.tsx:121:11:3709:95:e:polygon"/><path d="M 12,90 L 30,78 L 48,86 L 64,68 L 82,74 L 100,52 L 116,40 L 200,0 L 200,200 L 12,200 Z" fill="#F59E0B" clip-path="url(#diamond-clip-sm)" fill-opacity="0.38" data-fg-d3bl38="0.8:0.125:/src/app/App.tsx:122:11:3815:224:e:path"/><polyline points="12,90 30,78 48,86 64,68 82,74 100,52 116,40" fill="none" stroke="url(#gold-sm)" stroke-width="2" stroke-linecap="round" stroke-linejoin="round" clip-path="url(#diamond-clip-sm)" data-fg-d3bl39="0.8:0.125:/src/app/App.tsx:128:11:4050:288:e:polyline"/><circle cx="12" cy="90" r="2.5" fill="#FCD34D" clip-path="url(#diamond-clip-sm)" data-fg-d3bl41="0.8:0.125:/src/app/App.tsx:138:13:4445:90:e:circle"/><circle cx="30" cy="78" r="2.5" fill="#FCD34D" clip-path="url(#diamond-clip-sm)" data-fg-d3bl41="0.8:0.125:/src/app/App.tsx:138:13:4445:90:e:circle"/><circle cx="48" cy="86" r="2.5" fill="#FCD34D" clip-path="url(#diamond-clip-sm)" data-fg-d3bl41="0.8:0.125:/src/app/App.tsx:138:13:4445:90:e:circle"/><circle cx="64" cy="68" r="2.5" fill="#FCD34D" clip-path="url(#diamond-clip-sm)" data-fg-d3bl41="0.8:0.125:/src/app/App.tsx:138:13:4445:90:e:circle"/><circle cx="82" cy="74" r="2.5" fill="#FCD34D" clip-path="url(#diamond-clip-sm)" data-fg-d3bl41="0.8:0.125:/src/app/App.tsx:138:13:4445:90:e:circle"/><circle cx="100" cy="52" r="2.5" fill="#FCD34D" clip-path="url(#diamond-clip-sm)" data-fg-d3bl41="0.8:0.125:/src/app/App.tsx:138:13:4445:90:e:circle"/><circle cx="116" cy="40" r="2.5" fill="#FCD34D" clip-path="url(#diamond-clip-sm)" data-fg-d3bl41="0.8:0.125:/src/app/App.tsx:138:13:4445:90:e:circle"/></svg>