<svg viewBox="0 0 430 160" width="430" height="160" xmlns="http://www.w3.org/2000/svg" data-fg-d3bl2="0.8:0.125:/src/app/App.tsx:22:7:665:2372:e:svg:etxtetxtetxtetxtxtxtetxte" data-fgid-d3bl2=":r1:" id="logo-primary"><defs data-fg-d3bl3="0.8:0.125:/src/app/App.tsx:29:9:826:575:e:defs:etete"><clipPath id="diamond-clip" data-fg-d3bl4="0.8:0.125:/src/app/App.tsx:30:11:843:109:e:clipPath:e"><polygon points="80,16 144,80 80,144 16,80" data-fg-d3bl5="0.8:0.125:/src/app/App.tsx:31:13:884:46:e:polygon"/></clipPath><linearGradient id="gold-grad" x1="0%" y1="100%" x2="100%" y2="0%" data-fg-d3bl6="0.8:0.125:/src/app/App.tsx:33:11:963:203:e:linearGradient:ete"><stop offset="0%" stop-color="#D97706" data-fg-d3bl7="0.8:0.125:/src/app/App.tsx:34:13:1043:40:e:stop"/><stop offset="100%" stop-color="#FCD34D" data-fg-d3bl8="0.8:0.125:/src/app/App.tsx:35:13:1096:42:e:stop"/></linearGradient><linearGradient id="gold-grad-text" x1="0%" y1="0%" x2="100%" y2="100%" data-fg-d3bl9="0.8:0.125:/src/app/App.tsx:37:11:1177:208:e:linearGradient:ete"><stop offset="0%" stop-color="#FCD34D" data-fg-d3bl10="0.8:0.125:/src/app/App.tsx:38:13:1262:40:e:stop"/><stop offset="100%" stop-color="#D97706" data-fg-d3bl11="0.8:0.125:/src/app/App.tsx:39:13:1315:42:e:stop"/></linearGradient></defs><polygon points="80,16 144,80 80,144 16,80" fill="none" stroke="url(#gold-grad)" stroke-width="2" data-fg-d3bl13="0.8:0.125:/src/app/App.tsx:44:9:1441:147:e:polygon"/><path d="M 20,108 L 40,96 L 56,104 L 72,84 L 88,90 L 106,62 L 124,50 L 200,0 L 200,200 L 20,200 Z" fill="#F59E0B" fill-opacity="0.38" clip-path="url(#diamond-clip)" data-fg-d3bl15="0.8:0.125:/src/app/App.tsx:52:9:1651:213:e:path"/><polyline points="20,108 40,96 56,104 72,84 88,90 106,62 124,50" fill="none" stroke="url(#gold-grad)" stroke-width="2" stroke-linecap="round" stroke-linejoin="round" clip-path="url(#diamond-clip)" data-fg-d3bl17="0.8:0.125:/src/app/App.tsx:60:9:1922:273:e:polyline"/><circle cx="20" cy="108" r="2.8" fill="#FCD34D" clip-path="url(#diamond-clip)" data-fg-d3bl20="0.8:0.125:/src/app/App.tsx:72:11:2344:87:e:circle"/><circle cx="40" cy="96" r="2.8" fill="#FCD34D" clip-path="url(#diamond-clip)" data-fg-d3bl20="0.8:0.125:/src/app/App.tsx:72:11:2344:87:e:circle"/><circle cx="56" cy="104" r="2.8" fill="#FCD34D" clip-path="url(#diamond-clip)" data-fg-d3bl20="0.8:0.125:/src/app/App.tsx:72:11:2344:87:e:circle"/><circle cx="72" cy="84" r="2.8" fill="#FCD34D" clip-path="url(#diamond-clip)" data-fg-d3bl20="0.8:0.125:/src/app/App.tsx:72:11:2344:87:e:circle"/><circle cx="88" cy="90" r="2.8" fill="#FCD34D" clip-path="url(#diamond-clip)" data-fg-d3bl20="0.8:0.125:/src/app/App.tsx:72:11:2344:87:e:circle"/><circle cx="106" cy="62" r="2.8" fill="#FCD34D" clip-path="url(#diamond-clip)" data-fg-d3bl20="0.8:0.125:/src/app/App.tsx:72:11:2344:87:e:circle"/><circle cx="124" cy="50" r="2.8" fill="#FCD34D" clip-path="url(#diamond-clip)" data-fg-d3bl20="0.8:0.125:/src/app/App.tsx:72:11:2344:87:e:circle"/><text x="165" y="100" font-family="'Space Grotesk', sans-serif" font-size="58" font-weight="500" fill="#F8FAFC" letter-spacing="-2" data-fg-d3bl22="0.8:0.125:/src/app/App.tsx:76:9:2486:238:e:text:t">Skin</text><text x="286" y="100" font-family="'Space Grotesk', sans-serif" font-size="58" font-weight="700" fill="url(#gold-grad-text)" letter-spacing="-2" data-fg-d3bl25="0.8:0.125:/src/app/App.tsx:89:9:2774:250:e:text:t">ROI</text></svg>